<?xml version="1.0" encoding="UTF-8" standalone="no"?>
<!DOCTYPE svg PUBLIC "-//W3C//DTD SVG 1.1//EN"
 "http://www.w3.org/Graphics/SVG/1.1/DTD/svg11.dtd">
<!-- Generated by graphviz version 2.40.1 (20161225.0304)
 -->
<!-- Title: dependencies Pages: 1 -->
<svg width="504pt" height="211pt"
 viewBox="0.00 0.00 504.00 211.00" xmlns="http://www.w3.org/2000/svg" xmlns:xlink="http://www.w3.org/1999/xlink">
<g id="graph0" class="graph" transform="scale(1 1) rotate(0) translate(4 207)">
<title>dependencies</title>
<polygon fill="#ffffff" stroke="transparent" points="-4,4 -4,-207 500,-207 500,4 -4,4"/>
<text text-anchor="start" x="227.0091" y="-42.4" font-family="sans-serif" font-weight="bold" font-size="14.00" fill="#000000">Legend</text>
<polygon fill="#ffffb3" stroke="transparent" points="14,-10 14,-30 34,-30 34,-10 14,-10"/>
<text text-anchor="start" x="37.629" y="-15.4" font-family="sans-serif" font-size="14.00" fill="#000000"> &#160;Declarations</text>
<polygon fill="#8dd3c7" stroke="transparent" points="127,-10 127,-30 147,-30 147,-10 127,-10"/>
<text text-anchor="start" x="150.7251" y="-15.4" font-family="sans-serif" font-size="14.00" fill="#000000"> &#160;Module</text>
<polygon fill="#80b1d3" stroke="transparent" points="213,-10 213,-30 233,-30 233,-10 213,-10"/>
<text text-anchor="start" x="236.7812" y="-15.4" font-family="sans-serif" font-size="14.00" fill="#000000"> &#160;Bootstrap</text>
<polygon fill="#fdb462" stroke="transparent" points="310,-10 310,-30 330,-30 330,-10 310,-10"/>
<text text-anchor="start" x="333.6732" y="-15.4" font-family="sans-serif" font-size="14.00" fill="#000000"> &#160;Providers</text>
<polygon fill="#fb8072" stroke="transparent" points="406,-10 406,-30 426,-30 426,-10 406,-10"/>
<text text-anchor="start" x="429.7258" y="-15.4" font-family="sans-serif" font-size="14.00" fill="#000000"> &#160;Exports</text>
<g id="clust1" class="cluster">
<title>cluster_BranchModule</title>
<polygon fill="none" stroke="#000000" stroke-dasharray="1,5" points="75,-70 75,-195 421,-195 421,-70 75,-70"/>
</g>
<g id="clust6" class="cluster">
<title>cluster_BranchModule_providers</title>
<polygon fill="none" stroke="#000000" points="83,-78 83,-130 413,-130 413,-78 83,-78"/>
</g>
<!-- BranchDbService -->
<g id="node1" class="node">
<title>BranchDbService</title>
<ellipse fill="#fdb462" stroke="#000000" cx="325" cy="-104" rx="79.8546" ry="18"/>
<text text-anchor="middle" x="325" y="-99.8" font-family="Times,serif" font-size="14.00" fill="#000000">BranchDbService</text>
</g>
<!-- BranchModule -->
<g id="node3" class="node">
<title>BranchModule</title>
<polygon fill="#8dd3c7" stroke="#000000" points="291.9762,-187 288.9762,-191 267.9762,-191 264.9762,-187 192.0238,-187 192.0238,-151 291.9762,-151 291.9762,-187"/>
<text text-anchor="middle" x="242" y="-164.8" font-family="Times,serif" font-size="14.00" fill="#000000">BranchModule</text>
</g>
<!-- BranchDbService&#45;&gt;BranchModule -->
<g id="edge1" class="edge">
<title>BranchDbService&#45;&gt;BranchModule</title>
<path fill="none" stroke="#000000" d="M268.6555,-116.8419C268.6555,-116.8419 268.6555,-140.5231 268.6555,-140.5231"/>
<polygon fill="#000000" stroke="#000000" points="265.1556,-140.523 268.6555,-150.5231 272.1556,-140.5231 265.1556,-140.523"/>
</g>
<!-- BranchService -->
<g id="node2" class="node">
<title>BranchService</title>
<ellipse fill="#fdb462" stroke="#000000" cx="159" cy="-104" rx="67.7548" ry="18"/>
<text text-anchor="middle" x="159" y="-99.8" font-family="Times,serif" font-size="14.00" fill="#000000">BranchService</text>
</g>
<!-- BranchService&#45;&gt;BranchModule -->
<g id="edge2" class="edge">
<title>BranchService&#45;&gt;BranchModule</title>
<path fill="none" stroke="#000000" d="M209.4446,-116.226C209.4446,-116.226 209.4446,-140.683 209.4446,-140.683"/>
<polygon fill="#000000" stroke="#000000" points="205.9447,-140.683 209.4446,-150.683 212.9447,-140.683 205.9447,-140.683"/>
</g>
</g>
</svg>
