<?xml version="1.0" encoding="UTF-8" standalone="no"?>
<!DOCTYPE svg PUBLIC "-//W3C//DTD SVG 1.1//EN"
 "http://www.w3.org/Graphics/SVG/1.1/DTD/svg11.dtd">
<!-- Generated by graphviz version 2.40.1 (20161225.0304)
 -->
<!-- Title: dependencies Pages: 1 -->
<svg width="2723pt" height="211pt"
 viewBox="0.00 0.00 2723.00 211.00" xmlns="http://www.w3.org/2000/svg" xmlns:xlink="http://www.w3.org/1999/xlink">
<g id="graph0" class="graph" transform="scale(1 1) rotate(0) translate(4 207)">
<title>dependencies</title>
<polygon fill="#ffffff" stroke="transparent" points="-4,4 -4,-207 2719,-207 2719,4 -4,4"/>
<text text-anchor="start" x="1336.5091" y="-42.4" font-family="sans-serif" font-weight="bold" font-size="14.00" fill="#000000">Legend</text>
<polygon fill="#ffffb3" stroke="transparent" points="1123.5,-10 1123.5,-30 1143.5,-30 1143.5,-10 1123.5,-10"/>
<text text-anchor="start" x="1147.129" y="-15.4" font-family="sans-serif" font-size="14.00" fill="#000000"> &#160;Declarations</text>
<polygon fill="#8dd3c7" stroke="transparent" points="1236.5,-10 1236.5,-30 1256.5,-30 1256.5,-10 1236.5,-10"/>
<text text-anchor="start" x="1260.2251" y="-15.4" font-family="sans-serif" font-size="14.00" fill="#000000"> &#160;Module</text>
<polygon fill="#80b1d3" stroke="transparent" points="1322.5,-10 1322.5,-30 1342.5,-30 1342.5,-10 1322.5,-10"/>
<text text-anchor="start" x="1346.2812" y="-15.4" font-family="sans-serif" font-size="14.00" fill="#000000"> &#160;Bootstrap</text>
<polygon fill="#fdb462" stroke="transparent" points="1419.5,-10 1419.5,-30 1439.5,-30 1439.5,-10 1419.5,-10"/>
<text text-anchor="start" x="1443.1732" y="-15.4" font-family="sans-serif" font-size="14.00" fill="#000000"> &#160;Providers</text>
<polygon fill="#fb8072" stroke="transparent" points="1515.5,-10 1515.5,-30 1535.5,-30 1535.5,-10 1515.5,-10"/>
<text text-anchor="start" x="1539.2258" y="-15.4" font-family="sans-serif" font-size="14.00" fill="#000000"> &#160;Exports</text>
<g id="clust1" class="cluster">
<title>cluster_LeaveModule</title>
<polygon fill="none" stroke="#000000" stroke-dasharray="1,5" points="8,-70 8,-195 2707,-195 2707,-70 8,-70"/>
</g>
<g id="clust6" class="cluster">
<title>cluster_LeaveModule_providers</title>
<polygon fill="none" stroke="#000000" points="16,-78 16,-130 2699,-130 2699,-78 16,-78"/>
</g>
<!-- ApplyLeaveService -->
<g id="node1" class="node">
<title>ApplyLeaveService</title>
<ellipse fill="#fdb462" stroke="#000000" cx="2603" cy="-104" rx="87.9413" ry="18"/>
<text text-anchor="middle" x="2603" y="-99.8" font-family="Times,serif" font-size="14.00" fill="#000000">ApplyLeaveService</text>
</g>
<!-- LeaveModule -->
<g id="node12" class="node">
<title>LeaveModule</title>
<polygon fill="#8dd3c7" stroke="#000000" points="1506.7465,-187 1503.7465,-191 1482.7465,-191 1479.7465,-187 1413.2535,-187 1413.2535,-151 1506.7465,-151 1506.7465,-187"/>
<text text-anchor="middle" x="1460" y="-164.8" font-family="Times,serif" font-size="14.00" fill="#000000">LeaveModule</text>
</g>
<!-- ApplyLeaveService&#45;&gt;LeaveModule -->
<g id="edge1" class="edge">
<title>ApplyLeaveService&#45;&gt;LeaveModule</title>
<path fill="none" stroke="#000000" d="M2603,-122.0908C2603,-145.1328 2603,-182 2603,-182 2603,-182 1516.9379,-182 1516.9379,-182"/>
<polygon fill="#000000" stroke="#000000" points="1516.9379,-178.5001 1506.9379,-182 1516.9378,-185.5001 1516.9379,-178.5001"/>
</g>
<!-- ApprovalService -->
<g id="node2" class="node">
<title>ApprovalService</title>
<ellipse fill="#fdb462" stroke="#000000" cx="2421" cy="-104" rx="76.4246" ry="18"/>
<text text-anchor="middle" x="2421" y="-99.8" font-family="Times,serif" font-size="14.00" fill="#000000">ApprovalService</text>
</g>
<!-- ApprovalService&#45;&gt;LeaveModule -->
<g id="edge2" class="edge">
<title>ApprovalService&#45;&gt;LeaveModule</title>
<path fill="none" stroke="#000000" d="M2421,-122.2843C2421,-143.3211 2421,-175 2421,-175 2421,-175 1517.0016,-175 1517.0016,-175"/>
<polygon fill="#000000" stroke="#000000" points="1517.0016,-171.5001 1507.0016,-175 1517.0015,-178.5001 1517.0016,-171.5001"/>
</g>
<!-- DateCalculationService -->
<g id="node3" class="node">
<title>DateCalculationService</title>
<ellipse fill="#fdb462" stroke="#000000" cx="2224" cy="-104" rx="102.9821" ry="18"/>
<text text-anchor="middle" x="2224" y="-99.8" font-family="Times,serif" font-size="14.00" fill="#000000">DateCalculationService</text>
</g>
<!-- DateCalculationService&#45;&gt;LeaveModule -->
<g id="edge3" class="edge">
<title>DateCalculationService&#45;&gt;LeaveModule</title>
<path fill="none" stroke="#000000" d="M2224,-122.1061C2224,-141.3391 2224,-169 2224,-169 2224,-169 1516.9279,-169 1516.9279,-169"/>
<polygon fill="#000000" stroke="#000000" points="1516.928,-165.5001 1506.9279,-169 1516.9279,-172.5001 1516.928,-165.5001"/>
</g>
<!-- EntitledFullService -->
<g id="node4" class="node">
<title>EntitledFullService</title>
<ellipse fill="#fdb462" stroke="#000000" cx="2017" cy="-104" rx="86.2677" ry="18"/>
<text text-anchor="middle" x="2017" y="-99.8" font-family="Times,serif" font-size="14.00" fill="#000000">EntitledFullService</text>
</g>
<!-- EntitledFullService&#45;&gt;LeaveModule -->
<g id="edge4" class="edge">
<title>EntitledFullService&#45;&gt;LeaveModule</title>
<path fill="none" stroke="#000000" d="M2017,-122.0225C2017,-139.3734 2017,-163 2017,-163 2017,-163 1517.0095,-163 1517.0095,-163"/>
<polygon fill="#000000" stroke="#000000" points="1517.0095,-159.5001 1507.0095,-163 1517.0094,-166.5001 1517.0095,-159.5001"/>
</g>
<!-- LeaveApplicationValidationService -->
<g id="node5" class="node">
<title>LeaveApplicationValidationService</title>
<ellipse fill="#fdb462" stroke="#000000" cx="1763" cy="-104" rx="149.8763" ry="18"/>
<text text-anchor="middle" x="1763" y="-99.8" font-family="Times,serif" font-size="14.00" fill="#000000">LeaveApplicationValidationService</text>
</g>
<!-- LeaveApplicationValidationService&#45;&gt;LeaveModule -->
<g id="edge5" class="edge">
<title>LeaveApplicationValidationService&#45;&gt;LeaveModule</title>
<path fill="none" stroke="#000000" d="M1763,-122.2396C1763,-137.5706 1763,-157 1763,-157 1763,-157 1517.0113,-157 1517.0113,-157"/>
<polygon fill="#000000" stroke="#000000" points="1517.0113,-153.5001 1507.0113,-157 1517.0113,-160.5001 1517.0113,-153.5001"/>
</g>
<!-- LeaveBalanceValidationService -->
<g id="node6" class="node">
<title>LeaveBalanceValidationService</title>
<ellipse fill="#fdb462" stroke="#000000" cx="1460" cy="-104" rx="135.3881" ry="18"/>
<text text-anchor="middle" x="1460" y="-99.8" font-family="Times,serif" font-size="14.00" fill="#000000">LeaveBalanceValidationService</text>
</g>
<!-- LeaveBalanceValidationService&#45;&gt;LeaveModule -->
<g id="edge6" class="edge">
<title>LeaveBalanceValidationService&#45;&gt;LeaveModule</title>
<path fill="none" stroke="#000000" d="M1460,-122.1061C1460,-122.1061 1460,-140.991 1460,-140.991"/>
<polygon fill="#000000" stroke="#000000" points="1456.5001,-140.9909 1460,-150.991 1463.5001,-140.991 1456.5001,-140.9909"/>
</g>
<!-- LeaveTransactionDbService -->
<g id="node7" class="node">
<title>LeaveTransactionDbService</title>
<ellipse fill="#fdb462" stroke="#000000" cx="1186" cy="-104" rx="120.925" ry="18"/>
<text text-anchor="middle" x="1186" y="-99.8" font-family="Times,serif" font-size="14.00" fill="#000000">LeaveTransactionDbService</text>
</g>
<!-- LeaveTransactionDbService&#45;&gt;LeaveModule -->
<g id="edge7" class="edge">
<title>LeaveTransactionDbService&#45;&gt;LeaveModule</title>
<path fill="none" stroke="#000000" d="M1186,-122.2396C1186,-137.5706 1186,-157 1186,-157 1186,-157 1403.209,-157 1403.209,-157"/>
<polygon fill="#000000" stroke="#000000" points="1403.2091,-160.5001 1413.209,-157 1403.209,-153.5001 1403.2091,-160.5001"/>
</g>
<!-- ProratedDateCurrentMonthService -->
<g id="node8" class="node">
<title>ProratedDateCurrentMonthService</title>
<ellipse fill="#fdb462" stroke="#000000" cx="901" cy="-104" rx="146.3653" ry="18"/>
<text text-anchor="middle" x="901" y="-99.8" font-family="Times,serif" font-size="14.00" fill="#000000">ProratedDateCurrentMonthService</text>
</g>
<!-- ProratedDateCurrentMonthService&#45;&gt;LeaveModule -->
<g id="edge8" class="edge">
<title>ProratedDateCurrentMonthService&#45;&gt;LeaveModule</title>
<path fill="none" stroke="#000000" d="M901,-122.0225C901,-139.3734 901,-163 901,-163 901,-163 1402.8217,-163 1402.8217,-163"/>
<polygon fill="#000000" stroke="#000000" points="1402.8218,-166.5001 1412.8217,-163 1402.8217,-159.5001 1402.8218,-166.5001"/>
</g>
<!-- ProratedDateEndYearService -->
<g id="node9" class="node">
<title>ProratedDateEndYearService</title>
<ellipse fill="#fdb462" stroke="#000000" cx="612" cy="-104" rx="125.4969" ry="18"/>
<text text-anchor="middle" x="612" y="-99.8" font-family="Times,serif" font-size="14.00" fill="#000000">ProratedDateEndYearService</text>
</g>
<!-- ProratedDateEndYearService&#45;&gt;LeaveModule -->
<g id="edge9" class="edge">
<title>ProratedDateEndYearService&#45;&gt;LeaveModule</title>
<path fill="none" stroke="#000000" d="M612,-122.1061C612,-141.3391 612,-169 612,-169 612,-169 1403.1999,-169 1403.1999,-169"/>
<polygon fill="#000000" stroke="#000000" points="1403.2,-172.5001 1413.1999,-169 1403.1999,-165.5001 1403.2,-172.5001"/>
</g>
<!-- UserInfoService -->
<g id="node10" class="node">
<title>UserInfoService</title>
<ellipse fill="#fdb462" stroke="#000000" cx="394" cy="-104" rx="74.1143" ry="18"/>
<text text-anchor="middle" x="394" y="-99.8" font-family="Times,serif" font-size="14.00" fill="#000000">UserInfoService</text>
</g>
<!-- UserInfoService&#45;&gt;LeaveModule -->
<g id="edge10" class="edge">
<title>UserInfoService&#45;&gt;LeaveModule</title>
<path fill="none" stroke="#000000" d="M394,-122.2843C394,-143.3211 394,-175 394,-175 394,-175 1403.1654,-175 1403.1654,-175"/>
<polygon fill="#000000" stroke="#000000" points="1403.1655,-178.5001 1413.1654,-175 1403.1654,-171.5001 1403.1655,-178.5001"/>
</g>
<!-- UserLeaveEntitlementDbService -->
<g id="node11" class="node">
<title>UserLeaveEntitlementDbService</title>
<ellipse fill="#fdb462" stroke="#000000" cx="163" cy="-104" rx="138.8372" ry="18"/>
<text text-anchor="middle" x="163" y="-99.8" font-family="Times,serif" font-size="14.00" fill="#000000">UserLeaveEntitlementDbService</text>
</g>
<!-- UserLeaveEntitlementDbService&#45;&gt;LeaveModule -->
<g id="edge11" class="edge">
<title>UserLeaveEntitlementDbService&#45;&gt;LeaveModule</title>
<path fill="none" stroke="#000000" d="M163,-122.0908C163,-145.1328 163,-182 163,-182 163,-182 1403.0728,-182 1403.0728,-182"/>
<polygon fill="#000000" stroke="#000000" points="1403.0729,-185.5001 1413.0728,-182 1403.0728,-178.5001 1403.0729,-185.5001"/>
</g>
</g>
</svg>
