<?xml version="1.0" encoding="UTF-8" standalone="no"?>
<!DOCTYPE svg PUBLIC "-//W3C//DTD SVG 1.1//EN"
 "http://www.w3.org/Graphics/SVG/1.1/DTD/svg11.dtd">
<!-- Generated by graphviz version 2.40.1 (20161225.0304)
 -->
<!-- Title: dependencies Pages: 1 -->
<svg width="504pt" height="211pt"
 viewBox="0.00 0.00 504.00 211.00" xmlns="http://www.w3.org/2000/svg" xmlns:xlink="http://www.w3.org/1999/xlink">
<g id="graph0" class="graph" transform="scale(1 1) rotate(0) translate(4 207)">
<title>dependencies</title>
<polygon fill="#ffffff" stroke="transparent" points="-4,4 -4,-207 500,-207 500,4 -4,4"/>
<text text-anchor="start" x="227.0091" y="-42.4" font-family="sans-serif" font-weight="bold" font-size="14.00" fill="#000000">Legend</text>
<polygon fill="#ffffb3" stroke="transparent" points="14,-10 14,-30 34,-30 34,-10 14,-10"/>
<text text-anchor="start" x="37.629" y="-15.4" font-family="sans-serif" font-size="14.00" fill="#000000"> &#160;Declarations</text>
<polygon fill="#8dd3c7" stroke="transparent" points="127,-10 127,-30 147,-30 147,-10 127,-10"/>
<text text-anchor="start" x="150.7251" y="-15.4" font-family="sans-serif" font-size="14.00" fill="#000000"> &#160;Module</text>
<polygon fill="#80b1d3" stroke="transparent" points="213,-10 213,-30 233,-30 233,-10 213,-10"/>
<text text-anchor="start" x="236.7812" y="-15.4" font-family="sans-serif" font-size="14.00" fill="#000000"> &#160;Bootstrap</text>
<polygon fill="#fdb462" stroke="transparent" points="310,-10 310,-30 330,-30 330,-10 310,-10"/>
<text text-anchor="start" x="333.6732" y="-15.4" font-family="sans-serif" font-size="14.00" fill="#000000"> &#160;Providers</text>
<polygon fill="#fb8072" stroke="transparent" points="406,-10 406,-30 426,-30 426,-10 406,-10"/>
<text text-anchor="start" x="429.7258" y="-15.4" font-family="sans-serif" font-size="14.00" fill="#000000"> &#160;Exports</text>
<g id="clust1" class="cluster">
<title>cluster_DepartmentModule</title>
<polygon fill="none" stroke="#000000" stroke-dasharray="1,5" points="40,-70 40,-195 456,-195 456,-70 40,-70"/>
</g>
<g id="clust6" class="cluster">
<title>cluster_DepartmentModule_providers</title>
<polygon fill="none" stroke="#000000" points="48,-78 48,-130 448,-130 448,-78 48,-78"/>
</g>
<!-- DepartmentDbService -->
<g id="node1" class="node">
<title>DepartmentDbService</title>
<ellipse fill="#fdb462" stroke="#000000" cx="343" cy="-104" rx="97.249" ry="18"/>
<text text-anchor="middle" x="343" y="-99.8" font-family="Times,serif" font-size="14.00" fill="#000000">DepartmentDbService</text>
</g>
<!-- DepartmentModule -->
<g id="node3" class="node">
<title>DepartmentModule</title>
<polygon fill="#8dd3c7" stroke="#000000" points="304.6331,-187 301.6331,-191 280.6331,-191 277.6331,-187 179.3669,-187 179.3669,-151 304.6331,-151 304.6331,-187"/>
<text text-anchor="middle" x="242" y="-164.8" font-family="Times,serif" font-size="14.00" fill="#000000">DepartmentModule</text>
</g>
<!-- DepartmentDbService&#45;&gt;DepartmentModule -->
<g id="edge1" class="edge">
<title>DepartmentDbService&#45;&gt;DepartmentModule</title>
<path fill="none" stroke="#000000" d="M275.2209,-117.1537C275.2209,-117.1537 275.2209,-140.6938 275.2209,-140.6938"/>
<polygon fill="#000000" stroke="#000000" points="271.721,-140.6938 275.2209,-150.6938 278.721,-140.6939 271.721,-140.6938"/>
</g>
<!-- DepartmentService -->
<g id="node2" class="node">
<title>DepartmentService</title>
<ellipse fill="#fdb462" stroke="#000000" cx="142" cy="-104" rx="85.6493" ry="18"/>
<text text-anchor="middle" x="142" y="-99.8" font-family="Times,serif" font-size="14.00" fill="#000000">DepartmentService</text>
</g>
<!-- DepartmentService&#45;&gt;DepartmentModule -->
<g id="edge2" class="edge">
<title>DepartmentService&#45;&gt;DepartmentModule</title>
<path fill="none" stroke="#000000" d="M203.3792,-116.8419C203.3792,-116.8419 203.3792,-140.5231 203.3792,-140.5231"/>
<polygon fill="#000000" stroke="#000000" points="199.8793,-140.523 203.3792,-150.5231 206.8793,-140.5231 199.8793,-140.523"/>
</g>
</g>
</svg>
