<?xml version="1.0" encoding="UTF-8" standalone="no"?>
<!DOCTYPE svg PUBLIC "-//W3C//DTD SVG 1.1//EN"
 "http://www.w3.org/Graphics/SVG/1.1/DTD/svg11.dtd">
<!-- Generated by graphviz version 2.40.1 (20161225.0304)
 -->
<!-- Title: dependencies Pages: 1 -->
<svg width="760pt" height="211pt"
 viewBox="0.00 0.00 760.00 211.00" xmlns="http://www.w3.org/2000/svg" xmlns:xlink="http://www.w3.org/1999/xlink">
<g id="graph0" class="graph" transform="scale(1 1) rotate(0) translate(4 207)">
<title>dependencies</title>
<polygon fill="#ffffff" stroke="transparent" points="-4,4 -4,-207 756,-207 756,4 -4,4"/>
<text text-anchor="start" x="355.0091" y="-42.4" font-family="sans-serif" font-weight="bold" font-size="14.00" fill="#000000">Legend</text>
<polygon fill="#ffffb3" stroke="transparent" points="142,-10 142,-30 162,-30 162,-10 142,-10"/>
<text text-anchor="start" x="165.629" y="-15.4" font-family="sans-serif" font-size="14.00" fill="#000000"> &#160;Declarations</text>
<polygon fill="#8dd3c7" stroke="transparent" points="255,-10 255,-30 275,-30 275,-10 255,-10"/>
<text text-anchor="start" x="278.7251" y="-15.4" font-family="sans-serif" font-size="14.00" fill="#000000"> &#160;Module</text>
<polygon fill="#80b1d3" stroke="transparent" points="341,-10 341,-30 361,-30 361,-10 341,-10"/>
<text text-anchor="start" x="364.7812" y="-15.4" font-family="sans-serif" font-size="14.00" fill="#000000"> &#160;Bootstrap</text>
<polygon fill="#fdb462" stroke="transparent" points="438,-10 438,-30 458,-30 458,-10 438,-10"/>
<text text-anchor="start" x="461.6732" y="-15.4" font-family="sans-serif" font-size="14.00" fill="#000000"> &#160;Providers</text>
<polygon fill="#fb8072" stroke="transparent" points="534,-10 534,-30 554,-30 554,-10 534,-10"/>
<text text-anchor="start" x="557.7258" y="-15.4" font-family="sans-serif" font-size="14.00" fill="#000000"> &#160;Exports</text>
<g id="clust1" class="cluster">
<title>cluster_InvitationModule</title>
<polygon fill="none" stroke="#000000" stroke-dasharray="1,5" points="8,-70 8,-195 744,-195 744,-70 8,-70"/>
</g>
<g id="clust6" class="cluster">
<title>cluster_InvitationModule_providers</title>
<polygon fill="none" stroke="#000000" points="16,-78 16,-130 736,-130 736,-78 16,-78"/>
</g>
<!-- InvitationDbService -->
<g id="node1" class="node">
<title>InvitationDbService</title>
<ellipse fill="#fdb462" stroke="#000000" cx="639" cy="-104" rx="89.1838" ry="18"/>
<text text-anchor="middle" x="639" y="-99.8" font-family="Times,serif" font-size="14.00" fill="#000000">InvitationDbService</text>
</g>
<!-- InvitationModule -->
<g id="node5" class="node">
<title>InvitationModule</title>
<polygon fill="#8dd3c7" stroke="#000000" points="390.9874,-187 387.9874,-191 366.9874,-191 363.9874,-187 277.0126,-187 277.0126,-151 390.9874,-151 390.9874,-187"/>
<text text-anchor="middle" x="334" y="-164.8" font-family="Times,serif" font-size="14.00" fill="#000000">InvitationModule</text>
</g>
<!-- InvitationDbService&#45;&gt;InvitationModule -->
<g id="edge1" class="edge">
<title>InvitationDbService&#45;&gt;InvitationModule</title>
<path fill="none" stroke="#000000" d="M639,-122.1061C639,-141.3391 639,-169 639,-169 639,-169 401.0104,-169 401.0104,-169"/>
<polygon fill="#000000" stroke="#000000" points="401.0104,-165.5001 391.0104,-169 401.0103,-172.5001 401.0104,-165.5001"/>
</g>
<!-- InvitationInviteService -->
<g id="node2" class="node">
<title>InvitationInviteService</title>
<ellipse fill="#fdb462" stroke="#000000" cx="432" cy="-104" rx="100.1355" ry="18"/>
<text text-anchor="middle" x="432" y="-99.8" font-family="Times,serif" font-size="14.00" fill="#000000">InvitationInviteService</text>
</g>
<!-- InvitationInviteService&#45;&gt;InvitationModule -->
<g id="edge2" class="edge">
<title>InvitationInviteService&#45;&gt;InvitationModule</title>
<path fill="none" stroke="#000000" d="M361.463,-116.8419C361.463,-116.8419 361.463,-140.5231 361.463,-140.5231"/>
<polygon fill="#000000" stroke="#000000" points="357.9631,-140.523 361.463,-150.5231 364.9631,-140.5231 357.9631,-140.523"/>
</g>
<!-- InvitationService -->
<g id="node3" class="node">
<title>InvitationService</title>
<ellipse fill="#fdb462" stroke="#000000" cx="236" cy="-104" rx="77.5839" ry="18"/>
<text text-anchor="middle" x="236" y="-99.8" font-family="Times,serif" font-size="14.00" fill="#000000">InvitationService</text>
</g>
<!-- InvitationService&#45;&gt;InvitationModule -->
<g id="edge3" class="edge">
<title>InvitationService&#45;&gt;InvitationModule</title>
<path fill="none" stroke="#000000" d="M295.2741,-115.6207C295.2741,-115.6207 295.2741,-140.8534 295.2741,-140.8534"/>
<polygon fill="#000000" stroke="#000000" points="291.7742,-140.8533 295.2741,-150.8534 298.7742,-140.8534 291.7742,-140.8533"/>
</g>
<!-- UserService -->
<g id="node4" class="node">
<title>UserService</title>
<ellipse fill="#fdb462" stroke="#000000" cx="82" cy="-104" rx="58.4415" ry="18"/>
<text text-anchor="middle" x="82" y="-99.8" font-family="Times,serif" font-size="14.00" fill="#000000">UserService</text>
</g>
<!-- UserService&#45;&gt;InvitationModule -->
<g id="edge4" class="edge">
<title>UserService&#45;&gt;InvitationModule</title>
<path fill="none" stroke="#000000" d="M82,-122.1061C82,-141.3391 82,-169 82,-169 82,-169 266.8173,-169 266.8173,-169"/>
<polygon fill="#000000" stroke="#000000" points="266.8173,-172.5001 276.8173,-169 266.8173,-165.5001 266.8173,-172.5001"/>
</g>
</g>
</svg>
