<?xml version="1.0" encoding="UTF-8" standalone="no"?>
<!DOCTYPE svg PUBLIC "-//W3C//DTD SVG 1.1//EN"
 "http://www.w3.org/Graphics/SVG/1.1/DTD/svg11.dtd">
<!-- Generated by graphviz version 2.40.1 (20161225.0304)
 -->
<!-- Title: dependencies Pages: 1 -->
<svg width="504pt" height="211pt"
 viewBox="0.00 0.00 504.00 211.00" xmlns="http://www.w3.org/2000/svg" xmlns:xlink="http://www.w3.org/1999/xlink">
<g id="graph0" class="graph" transform="scale(1 1) rotate(0) translate(4 207)">
<title>dependencies</title>
<polygon fill="#ffffff" stroke="transparent" points="-4,4 -4,-207 500,-207 500,4 -4,4"/>
<text text-anchor="start" x="227.0091" y="-42.4" font-family="sans-serif" font-weight="bold" font-size="14.00" fill="#000000">Legend</text>
<polygon fill="#ffffb3" stroke="transparent" points="14,-10 14,-30 34,-30 34,-10 14,-10"/>
<text text-anchor="start" x="37.629" y="-15.4" font-family="sans-serif" font-size="14.00" fill="#000000"> &#160;Declarations</text>
<polygon fill="#8dd3c7" stroke="transparent" points="127,-10 127,-30 147,-30 147,-10 127,-10"/>
<text text-anchor="start" x="150.7251" y="-15.4" font-family="sans-serif" font-size="14.00" fill="#000000"> &#160;Module</text>
<polygon fill="#80b1d3" stroke="transparent" points="213,-10 213,-30 233,-30 233,-10 213,-10"/>
<text text-anchor="start" x="236.7812" y="-15.4" font-family="sans-serif" font-size="14.00" fill="#000000"> &#160;Bootstrap</text>
<polygon fill="#fdb462" stroke="transparent" points="310,-10 310,-30 330,-30 330,-10 310,-10"/>
<text text-anchor="start" x="333.6732" y="-15.4" font-family="sans-serif" font-size="14.00" fill="#000000"> &#160;Providers</text>
<polygon fill="#fb8072" stroke="transparent" points="406,-10 406,-30 426,-30 426,-10 406,-10"/>
<text text-anchor="start" x="429.7258" y="-15.4" font-family="sans-serif" font-size="14.00" fill="#000000"> &#160;Exports</text>
<g id="clust1" class="cluster">
<title>cluster_DesignationModule</title>
<polygon fill="none" stroke="#000000" stroke-dasharray="1,5" points="38,-70 38,-195 458,-195 458,-70 38,-70"/>
</g>
<g id="clust6" class="cluster">
<title>cluster_DesignationModule_providers</title>
<polygon fill="none" stroke="#000000" points="46,-78 46,-130 450,-130 450,-78 46,-78"/>
</g>
<!-- DesignationDbService -->
<g id="node1" class="node">
<title>DesignationDbService</title>
<ellipse fill="#fdb462" stroke="#000000" cx="344" cy="-104" rx="98.4139" ry="18"/>
<text text-anchor="middle" x="344" y="-99.8" font-family="Times,serif" font-size="14.00" fill="#000000">DesignationDbService</text>
</g>
<!-- DesignationModule -->
<g id="node3" class="node">
<title>DesignationModule</title>
<polygon fill="#8dd3c7" stroke="#000000" points="305.7022,-187 302.7022,-191 281.7022,-191 278.7022,-187 178.2978,-187 178.2978,-151 305.7022,-151 305.7022,-187"/>
<text text-anchor="middle" x="242" y="-164.8" font-family="Times,serif" font-size="14.00" fill="#000000">DesignationModule</text>
</g>
<!-- DesignationDbService&#45;&gt;DesignationModule -->
<g id="edge1" class="edge">
<title>DesignationDbService&#45;&gt;DesignationModule</title>
<path fill="none" stroke="#000000" d="M275.572,-117.1537C275.572,-117.1537 275.572,-140.6938 275.572,-140.6938"/>
<polygon fill="#000000" stroke="#000000" points="272.0721,-140.6938 275.572,-150.6938 279.0721,-140.6939 272.0721,-140.6938"/>
</g>
<!-- DesignationService -->
<g id="node2" class="node">
<title>DesignationService</title>
<ellipse fill="#fdb462" stroke="#000000" cx="141" cy="-104" rx="86.8146" ry="18"/>
<text text-anchor="middle" x="141" y="-99.8" font-family="Times,serif" font-size="14.00" fill="#000000">DesignationService</text>
</g>
<!-- DesignationService&#45;&gt;DesignationModule -->
<g id="edge2" class="edge">
<title>DesignationService&#45;&gt;DesignationModule</title>
<path fill="none" stroke="#000000" d="M203.0281,-116.8419C203.0281,-116.8419 203.0281,-140.5231 203.0281,-140.5231"/>
<polygon fill="#000000" stroke="#000000" points="199.5282,-140.523 203.0281,-150.5231 206.5282,-140.5231 199.5282,-140.523"/>
</g>
</g>
</svg>
