<?xml version="1.0" encoding="UTF-8" standalone="no"?>
<!DOCTYPE svg PUBLIC "-//W3C//DTD SVG 1.1//EN"
 "http://www.w3.org/Graphics/SVG/1.1/DTD/svg11.dtd">
<!-- Generated by graphviz version 2.40.1 (20161225.0304)
 -->
<!-- Title: dependencies Pages: 1 -->
<svg width="2671pt" height="211pt"
 viewBox="0.00 0.00 2671.00 211.00" xmlns="http://www.w3.org/2000/svg" xmlns:xlink="http://www.w3.org/1999/xlink">
<g id="graph0" class="graph" transform="scale(1 1) rotate(0) translate(4 207)">
<title>dependencies</title>
<polygon fill="#ffffff" stroke="transparent" points="-4,4 -4,-207 2667,-207 2667,4 -4,4"/>
<text text-anchor="start" x="1310.5091" y="-42.4" font-family="sans-serif" font-weight="bold" font-size="14.00" fill="#000000">Legend</text>
<polygon fill="#ffffb3" stroke="transparent" points="1097.5,-10 1097.5,-30 1117.5,-30 1117.5,-10 1097.5,-10"/>
<text text-anchor="start" x="1121.129" y="-15.4" font-family="sans-serif" font-size="14.00" fill="#000000"> &#160;Declarations</text>
<polygon fill="#8dd3c7" stroke="transparent" points="1210.5,-10 1210.5,-30 1230.5,-30 1230.5,-10 1210.5,-10"/>
<text text-anchor="start" x="1234.2251" y="-15.4" font-family="sans-serif" font-size="14.00" fill="#000000"> &#160;Module</text>
<polygon fill="#80b1d3" stroke="transparent" points="1296.5,-10 1296.5,-30 1316.5,-30 1316.5,-10 1296.5,-10"/>
<text text-anchor="start" x="1320.2812" y="-15.4" font-family="sans-serif" font-size="14.00" fill="#000000"> &#160;Bootstrap</text>
<polygon fill="#fdb462" stroke="transparent" points="1393.5,-10 1393.5,-30 1413.5,-30 1413.5,-10 1393.5,-10"/>
<text text-anchor="start" x="1417.1732" y="-15.4" font-family="sans-serif" font-size="14.00" fill="#000000"> &#160;Providers</text>
<polygon fill="#fb8072" stroke="transparent" points="1489.5,-10 1489.5,-30 1509.5,-30 1509.5,-10 1489.5,-10"/>
<text text-anchor="start" x="1513.2258" y="-15.4" font-family="sans-serif" font-size="14.00" fill="#000000"> &#160;Exports</text>
<g id="clust1" class="cluster">
<title>cluster_UserprofileModule</title>
<polygon fill="none" stroke="#000000" stroke-dasharray="1,5" points="8,-70 8,-195 2655,-195 2655,-70 8,-70"/>
</g>
<g id="clust6" class="cluster">
<title>cluster_UserprofileModule_providers</title>
<polygon fill="none" stroke="#000000" points="16,-78 16,-130 2647,-130 2647,-78 16,-78"/>
</g>
<!-- AccessLevelValidateService -->
<g id="node1" class="node">
<title>AccessLevelValidateService</title>
<ellipse fill="#fdb462" stroke="#000000" cx="2517" cy="-104" rx="122.0611" ry="18"/>
<text text-anchor="middle" x="2517" y="-99.8" font-family="Times,serif" font-size="14.00" fill="#000000">AccessLevelValidateService</text>
</g>
<!-- UserprofileModule -->
<g id="node11" class="node">
<title>UserprofileModule</title>
<polygon fill="#8dd3c7" stroke="#000000" points="1377.7935,-187 1374.7935,-191 1353.7935,-191 1350.7935,-187 1254.2065,-187 1254.2065,-151 1377.7935,-151 1377.7935,-187"/>
<text text-anchor="middle" x="1316" y="-164.8" font-family="Times,serif" font-size="14.00" fill="#000000">UserprofileModule</text>
</g>
<!-- AccessLevelValidateService&#45;&gt;UserprofileModule -->
<g id="edge1" class="edge">
<title>AccessLevelValidateService&#45;&gt;UserprofileModule</title>
<path fill="none" stroke="#000000" d="M2517,-122.0109C2517,-144.4852 2517,-180 2517,-180 2517,-180 1388.042,-180 1388.042,-180"/>
<polygon fill="#000000" stroke="#000000" points="1388.042,-176.5001 1378.042,-180 1388.0419,-183.5001 1388.042,-176.5001"/>
</g>
<!-- LeavetypeEntitlementDbService -->
<g id="node2" class="node">
<title>LeavetypeEntitlementDbService</title>
<ellipse fill="#fdb462" stroke="#000000" cx="2240" cy="-104" rx="137.1348" ry="18"/>
<text text-anchor="middle" x="2240" y="-99.8" font-family="Times,serif" font-size="14.00" fill="#000000">LeavetypeEntitlementDbService</text>
</g>
<!-- LeavetypeEntitlementDbService&#45;&gt;UserprofileModule -->
<g id="edge2" class="edge">
<title>LeavetypeEntitlementDbService&#45;&gt;UserprofileModule</title>
<path fill="none" stroke="#000000" d="M2240,-122.1289C2240,-142.5724 2240,-173 2240,-173 2240,-173 1387.701,-173 1387.701,-173"/>
<polygon fill="#000000" stroke="#000000" points="1387.701,-169.5001 1377.701,-173 1387.7009,-176.5001 1387.701,-169.5001"/>
</g>
<!-- ProratedDateCurrentMonthService -->
<g id="node3" class="node">
<title>ProratedDateCurrentMonthService</title>
<ellipse fill="#fdb462" stroke="#000000" cx="1939" cy="-104" rx="146.3653" ry="18"/>
<text text-anchor="middle" x="1939" y="-99.8" font-family="Times,serif" font-size="14.00" fill="#000000">ProratedDateCurrentMonthService</text>
</g>
<!-- ProratedDateCurrentMonthService&#45;&gt;UserprofileModule -->
<g id="edge3" class="edge">
<title>ProratedDateCurrentMonthService&#45;&gt;UserprofileModule</title>
<path fill="none" stroke="#000000" d="M1939,-122.2667C1939,-140.5552 1939,-166 1939,-166 1939,-166 1387.7267,-166 1387.7267,-166"/>
<polygon fill="#000000" stroke="#000000" points="1387.7267,-162.5001 1377.7267,-166 1387.7266,-169.5001 1387.7267,-162.5001"/>
</g>
<!-- ProratedDateEndYearService -->
<g id="node4" class="node">
<title>ProratedDateEndYearService</title>
<ellipse fill="#fdb462" stroke="#000000" cx="1650" cy="-104" rx="125.4969" ry="18"/>
<text text-anchor="middle" x="1650" y="-99.8" font-family="Times,serif" font-size="14.00" fill="#000000">ProratedDateEndYearService</text>
</g>
<!-- ProratedDateEndYearService&#45;&gt;UserprofileModule -->
<g id="edge4" class="edge">
<title>ProratedDateEndYearService&#45;&gt;UserprofileModule</title>
<path fill="none" stroke="#000000" d="M1650,-122.0091C1650,-138.0494 1650,-159 1650,-159 1650,-159 1387.65,-159 1387.65,-159"/>
<polygon fill="#000000" stroke="#000000" points="1387.65,-155.5001 1377.65,-159 1387.6499,-162.5001 1387.65,-155.5001"/>
</g>
<!-- UserInfoService -->
<g id="node5" class="node">
<title>UserInfoService</title>
<ellipse fill="#fdb462" stroke="#000000" cx="1432" cy="-104" rx="74.1143" ry="18"/>
<text text-anchor="middle" x="1432" y="-99.8" font-family="Times,serif" font-size="14.00" fill="#000000">UserInfoService</text>
</g>
<!-- UserInfoService&#45;&gt;UserprofileModule -->
<g id="edge5" class="edge">
<title>UserInfoService&#45;&gt;UserprofileModule</title>
<path fill="none" stroke="#000000" d="M1367.6699,-113.038C1367.6699,-113.038 1367.6699,-140.9586 1367.6699,-140.9586"/>
<polygon fill="#000000" stroke="#000000" points="1364.17,-140.9586 1367.6699,-150.9586 1371.17,-140.9587 1364.17,-140.9586"/>
</g>
<!-- UserLeaveEntitlementDbService -->
<g id="node6" class="node">
<title>UserLeaveEntitlementDbService</title>
<ellipse fill="#fdb462" stroke="#000000" cx="1201" cy="-104" rx="138.8372" ry="18"/>
<text text-anchor="middle" x="1201" y="-99.8" font-family="Times,serif" font-size="14.00" fill="#000000">UserLeaveEntitlementDbService</text>
</g>
<!-- UserLeaveEntitlementDbService&#45;&gt;UserprofileModule -->
<g id="edge6" class="edge">
<title>UserLeaveEntitlementDbService&#45;&gt;UserprofileModule</title>
<path fill="none" stroke="#000000" d="M1297.0109,-117.1537C1297.0109,-117.1537 1297.0109,-140.6938 1297.0109,-140.6938"/>
<polygon fill="#000000" stroke="#000000" points="1293.511,-140.6938 1297.0109,-150.6938 1300.511,-140.6939 1293.511,-140.6938"/>
</g>
<!-- UserLeaveEntitlementService -->
<g id="node7" class="node">
<title>UserLeaveEntitlementService</title>
<ellipse fill="#fdb462" stroke="#000000" cx="917" cy="-104" rx="126.7375" ry="18"/>
<text text-anchor="middle" x="917" y="-99.8" font-family="Times,serif" font-size="14.00" fill="#000000">UserLeaveEntitlementService</text>
</g>
<!-- UserLeaveEntitlementService&#45;&gt;UserprofileModule -->
<g id="edge7" class="edge">
<title>UserLeaveEntitlementService&#45;&gt;UserprofileModule</title>
<path fill="none" stroke="#000000" d="M917,-122.0091C917,-138.0494 917,-159 917,-159 917,-159 1244.094,-159 1244.094,-159"/>
<polygon fill="#000000" stroke="#000000" points="1244.0941,-162.5001 1254.094,-159 1244.094,-155.5001 1244.0941,-162.5001"/>
</g>
<!-- UserLeaveEntitlementSummaryDbService -->
<g id="node8" class="node">
<title>UserLeaveEntitlementSummaryDbService</title>
<ellipse fill="#fdb462" stroke="#000000" cx="596" cy="-104" rx="176.4393" ry="18"/>
<text text-anchor="middle" x="596" y="-99.8" font-family="Times,serif" font-size="14.00" fill="#000000">UserLeaveEntitlementSummaryDbService</text>
</g>
<!-- UserLeaveEntitlementSummaryDbService&#45;&gt;UserprofileModule -->
<g id="edge8" class="edge">
<title>UserLeaveEntitlementSummaryDbService&#45;&gt;UserprofileModule</title>
<path fill="none" stroke="#000000" d="M596,-122.2667C596,-140.5552 596,-166 596,-166 596,-166 1244.302,-166 1244.302,-166"/>
<polygon fill="#000000" stroke="#000000" points="1244.302,-169.5001 1254.302,-166 1244.3019,-162.5001 1244.302,-169.5001"/>
</g>
<!-- UserprofileDbService -->
<g id="node9" class="node">
<title>UserprofileDbService</title>
<ellipse fill="#fdb462" stroke="#000000" cx="306" cy="-104" rx="95.5221" ry="18"/>
<text text-anchor="middle" x="306" y="-99.8" font-family="Times,serif" font-size="14.00" fill="#000000">UserprofileDbService</text>
</g>
<!-- UserprofileDbService&#45;&gt;UserprofileModule -->
<g id="edge9" class="edge">
<title>UserprofileDbService&#45;&gt;UserprofileModule</title>
<path fill="none" stroke="#000000" d="M306,-122.1289C306,-142.5724 306,-173 306,-173 306,-173 1244.3404,-173 1244.3404,-173"/>
<polygon fill="#000000" stroke="#000000" points="1244.3404,-176.5001 1254.3404,-173 1244.3403,-169.5001 1244.3404,-176.5001"/>
</g>
<!-- UserprofileService -->
<g id="node10" class="node">
<title>UserprofileService</title>
<ellipse fill="#fdb462" stroke="#000000" cx="108" cy="-104" rx="83.9219" ry="18"/>
<text text-anchor="middle" x="108" y="-99.8" font-family="Times,serif" font-size="14.00" fill="#000000">UserprofileService</text>
</g>
<!-- UserprofileService&#45;&gt;UserprofileModule -->
<g id="edge10" class="edge">
<title>UserprofileService&#45;&gt;UserprofileModule</title>
<path fill="none" stroke="#000000" d="M108,-122.0109C108,-144.4852 108,-180 108,-180 108,-180 1244.016,-180 1244.016,-180"/>
<polygon fill="#000000" stroke="#000000" points="1244.016,-183.5001 1254.016,-180 1244.016,-176.5001 1244.016,-183.5001"/>
</g>
</g>
</svg>
