<?xml version="1.0" encoding="UTF-8" standalone="no"?>
<!DOCTYPE svg PUBLIC "-//W3C//DTD SVG 1.1//EN"
 "http://www.w3.org/Graphics/SVG/1.1/DTD/svg11.dtd">
<!-- Generated by graphviz version 2.40.1 (20161225.0304)
 -->
<!-- Title: dependencies Pages: 1 -->
<svg width="527pt" height="211pt"
 viewBox="0.00 0.00 527.00 211.00" xmlns="http://www.w3.org/2000/svg" xmlns:xlink="http://www.w3.org/1999/xlink">
<g id="graph0" class="graph" transform="scale(1 1) rotate(0) translate(4 207)">
<title>dependencies</title>
<polygon fill="#ffffff" stroke="transparent" points="-4,4 -4,-207 523,-207 523,4 -4,4"/>
<text text-anchor="start" x="238.5091" y="-42.4" font-family="sans-serif" font-weight="bold" font-size="14.00" fill="#000000">Legend</text>
<polygon fill="#ffffb3" stroke="transparent" points="25.5,-10 25.5,-30 45.5,-30 45.5,-10 25.5,-10"/>
<text text-anchor="start" x="49.129" y="-15.4" font-family="sans-serif" font-size="14.00" fill="#000000"> &#160;Declarations</text>
<polygon fill="#8dd3c7" stroke="transparent" points="138.5,-10 138.5,-30 158.5,-30 158.5,-10 138.5,-10"/>
<text text-anchor="start" x="162.2251" y="-15.4" font-family="sans-serif" font-size="14.00" fill="#000000"> &#160;Module</text>
<polygon fill="#80b1d3" stroke="transparent" points="224.5,-10 224.5,-30 244.5,-30 244.5,-10 224.5,-10"/>
<text text-anchor="start" x="248.2812" y="-15.4" font-family="sans-serif" font-size="14.00" fill="#000000"> &#160;Bootstrap</text>
<polygon fill="#fdb462" stroke="transparent" points="321.5,-10 321.5,-30 341.5,-30 341.5,-10 321.5,-10"/>
<text text-anchor="start" x="345.1732" y="-15.4" font-family="sans-serif" font-size="14.00" fill="#000000"> &#160;Providers</text>
<polygon fill="#fb8072" stroke="transparent" points="417.5,-10 417.5,-30 437.5,-30 437.5,-10 417.5,-10"/>
<text text-anchor="start" x="441.2258" y="-15.4" font-family="sans-serif" font-size="14.00" fill="#000000"> &#160;Exports</text>
<g id="clust1" class="cluster">
<title>cluster_UserImportModule</title>
<polygon fill="none" stroke="#000000" stroke-dasharray="1,5" points="8,-70 8,-195 511,-195 511,-70 8,-70"/>
</g>
<g id="clust6" class="cluster">
<title>cluster_UserImportModule_providers</title>
<polygon fill="none" stroke="#000000" points="16,-78 16,-130 503,-130 503,-78 16,-78"/>
</g>
<!-- UserImportService -->
<g id="node1" class="node">
<title>UserImportService</title>
<ellipse fill="#fdb462" stroke="#000000" cx="410" cy="-104" rx="84.5054" ry="18"/>
<text text-anchor="middle" x="410" y="-99.8" font-family="Times,serif" font-size="14.00" fill="#000000">UserImportService</text>
</g>
<!-- UserImportModule -->
<g id="node4" class="node">
<title>UserImportModule</title>
<polygon fill="#8dd3c7" stroke="#000000" points="295.0786,-187 292.0786,-191 271.0786,-191 268.0786,-187 170.9214,-187 170.9214,-151 295.0786,-151 295.0786,-187"/>
<text text-anchor="middle" x="233" y="-164.8" font-family="Times,serif" font-size="14.00" fill="#000000">UserImportModule</text>
</g>
<!-- UserImportService&#45;&gt;UserImportModule -->
<g id="edge1" class="edge">
<title>UserImportService&#45;&gt;UserImportModule</title>
<path fill="none" stroke="#000000" d="M410,-122.1061C410,-141.3391 410,-169 410,-169 410,-169 305.4036,-169 305.4036,-169"/>
<polygon fill="#000000" stroke="#000000" points="305.4036,-165.5001 295.4036,-169 305.4035,-172.5001 305.4036,-165.5001"/>
</g>
<!-- UserInfoService -->
<g id="node2" class="node">
<title>UserInfoService</title>
<ellipse fill="#fdb462" stroke="#000000" cx="233" cy="-104" rx="74.1143" ry="18"/>
<text text-anchor="middle" x="233" y="-99.8" font-family="Times,serif" font-size="14.00" fill="#000000">UserInfoService</text>
</g>
<!-- UserInfoService&#45;&gt;UserImportModule -->
<g id="edge2" class="edge">
<title>UserInfoService&#45;&gt;UserImportModule</title>
<path fill="none" stroke="#000000" d="M233,-122.1061C233,-122.1061 233,-140.991 233,-140.991"/>
<polygon fill="#000000" stroke="#000000" points="229.5001,-140.9909 233,-150.991 236.5001,-140.991 229.5001,-140.9909"/>
</g>
<!-- UserService -->
<g id="node3" class="node">
<title>UserService</title>
<ellipse fill="#fdb462" stroke="#000000" cx="82" cy="-104" rx="58.4415" ry="18"/>
<text text-anchor="middle" x="82" y="-99.8" font-family="Times,serif" font-size="14.00" fill="#000000">UserService</text>
</g>
<!-- UserService&#45;&gt;UserImportModule -->
<g id="edge3" class="edge">
<title>UserService&#45;&gt;UserImportModule</title>
<path fill="none" stroke="#000000" d="M82,-122.1061C82,-141.3391 82,-169 82,-169 82,-169 160.7107,-169 160.7107,-169"/>
<polygon fill="#000000" stroke="#000000" points="160.7108,-172.5001 170.7107,-169 160.7107,-165.5001 160.7108,-172.5001"/>
</g>
</g>
</svg>
