<?xml version="1.0" encoding="UTF-8" standalone="no"?>
<!DOCTYPE svg PUBLIC "-//W3C//DTD SVG 1.1//EN"
 "http://www.w3.org/Graphics/SVG/1.1/DTD/svg11.dtd">
<!-- Generated by graphviz version 2.40.1 (20161225.0304)
 -->
<!-- Title: dependencies Pages: 1 -->
<svg width="605pt" height="211pt"
 viewBox="0.00 0.00 605.00 211.00" xmlns="http://www.w3.org/2000/svg" xmlns:xlink="http://www.w3.org/1999/xlink">
<g id="graph0" class="graph" transform="scale(1 1) rotate(0) translate(4 207)">
<title>dependencies</title>
<polygon fill="#ffffff" stroke="transparent" points="-4,4 -4,-207 601,-207 601,4 -4,4"/>
<text text-anchor="start" x="277.5091" y="-42.4" font-family="sans-serif" font-weight="bold" font-size="14.00" fill="#000000">Legend</text>
<polygon fill="#ffffb3" stroke="transparent" points="64.5,-10 64.5,-30 84.5,-30 84.5,-10 64.5,-10"/>
<text text-anchor="start" x="88.129" y="-15.4" font-family="sans-serif" font-size="14.00" fill="#000000"> &#160;Declarations</text>
<polygon fill="#8dd3c7" stroke="transparent" points="177.5,-10 177.5,-30 197.5,-30 197.5,-10 177.5,-10"/>
<text text-anchor="start" x="201.2251" y="-15.4" font-family="sans-serif" font-size="14.00" fill="#000000"> &#160;Module</text>
<polygon fill="#80b1d3" stroke="transparent" points="263.5,-10 263.5,-30 283.5,-30 283.5,-10 263.5,-10"/>
<text text-anchor="start" x="287.2812" y="-15.4" font-family="sans-serif" font-size="14.00" fill="#000000"> &#160;Bootstrap</text>
<polygon fill="#fdb462" stroke="transparent" points="360.5,-10 360.5,-30 380.5,-30 380.5,-10 360.5,-10"/>
<text text-anchor="start" x="384.1732" y="-15.4" font-family="sans-serif" font-size="14.00" fill="#000000"> &#160;Providers</text>
<polygon fill="#fb8072" stroke="transparent" points="456.5,-10 456.5,-30 476.5,-30 476.5,-10 456.5,-10"/>
<text text-anchor="start" x="480.2258" y="-15.4" font-family="sans-serif" font-size="14.00" fill="#000000"> &#160;Exports</text>
<g id="clust1" class="cluster">
<title>cluster_LeavetypeEntitlementModule</title>
<polygon fill="none" stroke="#000000" stroke-dasharray="1,5" points="8,-70 8,-195 589,-195 589,-70 8,-70"/>
</g>
<g id="clust6" class="cluster">
<title>cluster_LeavetypeEntitlementModule_providers</title>
<polygon fill="none" stroke="#000000" points="16,-78 16,-130 581,-130 581,-78 16,-78"/>
</g>
<!-- LeaveTypeEntitlementService -->
<g id="node1" class="node">
<title>LeaveTypeEntitlementService</title>
<ellipse fill="#fdb462" stroke="#000000" cx="445" cy="-104" rx="128.4666" ry="18"/>
<text text-anchor="middle" x="445" y="-99.8" font-family="Times,serif" font-size="14.00" fill="#000000">LeaveTypeEntitlementService</text>
</g>
<!-- LeavetypeEntitlementModule -->
<g id="node3" class="node">
<title>LeavetypeEntitlementModule</title>
<polygon fill="#8dd3c7" stroke="#000000" points="394.6769,-187 391.6769,-191 370.6769,-191 367.6769,-187 211.3231,-187 211.3231,-151 394.6769,-151 394.6769,-187"/>
<text text-anchor="middle" x="303" y="-164.8" font-family="Times,serif" font-size="14.00" fill="#000000">LeavetypeEntitlementModule</text>
</g>
<!-- LeaveTypeEntitlementService&#45;&gt;LeavetypeEntitlementModule -->
<g id="edge1" class="edge">
<title>LeaveTypeEntitlementService&#45;&gt;LeavetypeEntitlementModule</title>
<path fill="none" stroke="#000000" d="M355.5525,-117.1537C355.5525,-117.1537 355.5525,-140.6938 355.5525,-140.6938"/>
<polygon fill="#000000" stroke="#000000" points="352.0526,-140.6938 355.5525,-150.6938 359.0526,-140.6939 352.0526,-140.6938"/>
</g>
<!-- LeavetypeEntitlementDbService -->
<g id="node2" class="node">
<title>LeavetypeEntitlementDbService</title>
<ellipse fill="#fdb462" stroke="#000000" cx="161" cy="-104" rx="137.1348" ry="18"/>
<text text-anchor="middle" x="161" y="-99.8" font-family="Times,serif" font-size="14.00" fill="#000000">LeavetypeEntitlementDbService</text>
</g>
<!-- LeavetypeEntitlementDbService&#45;&gt;LeavetypeEntitlementModule -->
<g id="edge2" class="edge">
<title>LeavetypeEntitlementDbService&#45;&gt;LeavetypeEntitlementModule</title>
<path fill="none" stroke="#000000" d="M254.7395,-117.1537C254.7395,-117.1537 254.7395,-140.6938 254.7395,-140.6938"/>
<polygon fill="#000000" stroke="#000000" points="251.2396,-140.6938 254.7395,-150.6938 258.2396,-140.6939 251.2396,-140.6938"/>
</g>
</g>
</svg>
